<svg width="61" height="17" viewBox="0 0 61 17" fill="none" xmlns="http://www.w3.org/2000/svg">
<path d="M35.6192 16.3902C35.6671 16.3571 35.7135 16.3228 35.7585 16.287C37.0525 15.2582 36.8122 13.2456 35.3324 12.4978L31.5104 10.5663L32.009 14.7672C32.2069 16.4354 34.1188 17.3542 35.548 16.4376C35.5717 16.4222 35.5956 16.4066 35.6192 16.3902Z" fill="#2C041D"/>
<path d="M25.5184 0.321726C25.469 0.351093 25.4202 0.382352 25.3722 0.415325C25.3487 0.431469 25.3255 0.448128 25.3026 0.464958C23.939 1.47392 24.1619 3.55744 25.6861 4.31119L29.5242 6.20924L28.9883 2.0118C28.781 0.386815 26.9428 -0.52391 25.5184 0.321726Z" fill="#2C041D"/>
<path d="M28.9912 14.7672L29.4898 10.5663L25.6677 12.4978C24.188 13.2456 23.9475 15.2582 25.2417 16.287C25.2865 16.3228 25.3331 16.3571 25.381 16.3902C25.4046 16.4066 25.4283 16.4222 25.4522 16.4376C26.8814 17.3542 28.7933 16.4354 28.9912 14.7672Z" fill="#2C041D"/>
<path d="M35.6975 0.464955C35.6747 0.448124 35.6515 0.431466 35.6279 0.415322C35.58 0.382177 35.5311 0.35109 35.4818 0.321723C34.0573 -0.523913 32.2192 0.386813 32.0116 2.01197L31.4757 6.2094L35.3138 4.31136C36.8382 3.55743 37.0611 1.47409 35.6975 0.464955Z" fill="#2C041D"/>
<path d="M36.4436 6.40378L32.6445 8.37893L36.4249 10.3864C37.9261 11.1836 39.7871 10.1683 39.8443 8.4897C39.8452 8.46154 39.8457 8.43337 39.8457 8.40503C39.8457 8.34733 39.8438 8.29014 39.8398 8.23347C39.7264 6.59939 37.9144 5.63903 36.4436 6.40378Z" fill="#2C041D"/>
<path d="M21.1602 8.23347C21.1562 8.29014 21.1543 8.34733 21.1543 8.40503C21.1543 8.43337 21.1548 8.46154 21.1557 8.4897C21.2129 10.1684 23.0739 11.1836 24.5751 10.3864L28.3555 8.37893L24.5564 6.40378C23.0857 5.63903 21.2738 6.59939 21.1602 8.23347Z" fill="#2C041D"/>
<path d="M56.5995 15.1334C56.6196 15.1205 56.6394 15.1073 56.6592 15.0937C56.6994 15.0661 56.7382 15.0372 56.7758 15.0074C57.8599 14.1454 57.6586 12.4595 56.4188 11.833L53.2169 10.2148L53.6346 13.7341C53.8004 15.1315 55.4021 15.9013 56.5995 15.1334Z" fill="#2C041D"/>
<path d="M56.4034 4.97461C57.6803 4.34313 57.8669 2.59776 56.7246 1.75247C56.7054 1.73838 56.6861 1.72447 56.6664 1.7109C56.6263 1.68325 56.5853 1.65698 56.544 1.63242C55.3506 0.924002 53.8108 1.68704 53.6369 3.0484L53.1879 6.56472L56.4034 4.97461Z" fill="#2C041D"/>
<path d="M60.1988 8.47511C60.1997 8.45158 60.2 8.42805 60.2 8.40418C60.2 8.35592 60.1983 8.30784 60.195 8.26044C60.0997 6.89152 58.5818 6.08692 57.3497 6.72767L54.1671 8.38237L57.3342 10.064C58.5919 10.7319 60.1508 9.88147 60.1988 8.47511Z" fill="#2C041D"/>
<path d="M52.0308 8.39987C52.0308 7.71069 51.4635 7.15186 50.7634 7.15186C50.0636 7.15186 49.4961 7.71052 49.4961 8.39987C49.4961 9.08923 50.0634 9.64789 50.7634 9.64789C51.4633 9.64789 52.0308 9.08923 52.0308 8.39987Z" fill="#C89946"/>
<path d="M44.4256 5.84553C43.3867 6.27007 42.3192 6.63295 41.2256 6.97299C42.3717 6.91271 43.5093 6.68722 44.6103 6.34752C45.7118 6.00765 46.7805 5.5534 47.7876 4.99096C48.796 4.43075 49.7419 3.76046 50.601 2.99966C51.4594 2.23904 52.2323 1.38293 52.8507 0.430298C52.0099 1.19848 51.154 1.92218 50.255 2.58595C49.3565 3.24954 48.4161 3.84908 47.444 4.39349C46.4707 4.93567 45.4641 5.42117 44.4256 5.84553Z" fill="#C89946"/>
<path d="M44.6104 10.4524C43.5094 10.1127 42.3718 9.88723 41.2257 9.82678C42.3193 10.1668 43.3868 10.5299 44.4257 10.9544C45.4641 11.3788 46.4707 11.8643 47.4442 12.4065C48.4163 12.9509 49.3566 13.5504 50.2551 14.214C51.1541 14.8778 52.01 15.6015 52.8508 16.3696C52.2324 15.417 51.4595 14.5607 50.6011 13.8003C49.742 13.0393 48.7961 12.3692 47.7877 11.809C46.7806 11.2465 45.7119 10.7923 44.6104 10.4524Z" fill="#C89946"/>
<path d="M7.78324 10.2147L4.58132 11.8328C3.34171 12.4593 3.14028 14.1453 4.22433 15.0072C4.262 15.0371 4.30089 15.066 4.341 15.0936C4.36071 15.1072 4.38059 15.1204 4.40064 15.1333C5.59805 15.9013 7.19954 15.1316 7.36539 13.734L7.78324 10.2147Z" fill="#2C041D"/>
<path d="M4.45609 1.63242C4.41476 1.65698 4.37378 1.68308 4.33367 1.7109C4.31396 1.72447 4.29442 1.73838 4.27541 1.75247C3.13312 2.59776 3.3199 4.34313 4.59665 4.97461L7.812 6.56472L7.36293 3.0484C7.18923 1.68704 5.64931 0.924002 4.45609 1.63242Z" fill="#2C041D"/>
<path d="M0.80511 8.2607C0.801797 8.3081 0.800049 8.35619 0.800049 8.40444C0.800049 8.42814 0.800401 8.45184 0.801273 8.47537C0.849232 9.88173 2.40816 10.7322 3.66591 10.0643L6.83295 8.38264L3.65039 6.72794C2.41828 6.08719 0.900331 6.89161 0.80511 8.2607Z" fill="#2C041D"/>
<path d="M8.96948 8.39987C8.96948 9.08923 9.53697 9.64789 10.2368 9.64789C10.9367 9.64789 11.5042 9.08923 11.5042 8.39987C11.5042 7.71069 10.9367 7.15186 10.2368 7.15186C9.53697 7.15186 8.96948 7.71069 8.96948 8.39987Z" fill="#C89946"/>
<path d="M10.399 2.99966C11.2581 3.76063 12.204 4.43075 13.2124 4.99096C14.2195 5.5534 15.2882 6.00765 16.3897 6.34752C17.4907 6.68722 18.6281 6.91254 19.7744 6.97299C18.6808 6.63295 17.6133 6.27007 16.5744 5.84553C15.536 5.42117 14.5294 4.93567 13.5559 4.39349C12.5838 3.84908 11.6435 3.24954 10.745 2.58595C9.846 1.92218 8.99006 1.19848 8.14929 0.430298C8.7677 1.38293 9.54063 2.23904 10.399 2.99966Z" fill="#C89946"/>
<path d="M10.7451 14.2141C11.6436 13.5505 12.584 12.951 13.5561 12.4066C14.5295 11.8644 15.5362 11.3789 16.5745 10.9545C17.6134 10.53 18.6809 10.1669 19.7745 9.8269C18.6282 9.88736 17.4908 10.1128 16.3898 10.4525C15.2883 10.7924 14.2196 11.2467 13.2125 11.8091C12.2041 12.3693 11.2582 13.0394 10.3991 13.8004C9.54075 14.561 8.76782 15.4171 8.14941 16.3698C8.99018 15.6016 9.84612 14.8779 10.7451 14.2141Z" fill="#C89946"/>
<path d="M31.3893 8.39998C31.3893 7.91637 30.9912 7.52429 30.5001 7.52429C30.009 7.52429 29.6108 7.91637 29.6108 8.39998C29.6108 8.8836 30.009 9.27585 30.5001 9.27585C30.9912 9.27585 31.3893 8.8836 31.3893 8.39998Z" fill="#C89946"/>
</svg>
