<svg width="11" height="17" viewBox="0 0 11 17" fill="none" xmlns="http://www.w3.org/2000/svg">
<path d="M5.59996 8.12067C5.09715 8.12067 4.61494 7.92093 4.2594 7.56539C3.90386 7.20986 3.70413 6.72764 3.70413 6.22484C3.70413 5.72203 3.90386 5.23982 4.2594 4.88428C4.61494 4.52874 5.09715 4.329 5.59996 4.329C6.10277 4.329 6.58498 4.52874 6.94052 4.88428C7.29605 5.23982 7.49579 5.72203 7.49579 6.22484C7.49579 6.4738 7.44676 6.72033 7.35148 6.95034C7.25621 7.18035 7.11656 7.38935 6.94052 7.56539C6.76447 7.74144 6.55548 7.88108 6.32546 7.97636C6.09545 8.07163 5.84892 8.12067 5.59996 8.12067ZM5.59996 0.916504C4.1921 0.916504 2.84191 1.47577 1.8464 2.47128C0.850895 3.46678 0.291626 4.81698 0.291626 6.22484C0.291626 10.2061 5.59996 16.0832 5.59996 16.0832C5.59996 16.0832 10.9083 10.2061 10.9083 6.22484C10.9083 4.81698 10.349 3.46678 9.35352 2.47128C8.35801 1.47577 7.00782 0.916504 5.59996 0.916504Z" fill="#2C041D"/>
</svg>
