<svg width="16" height="13" viewBox="0 0 16 13" fill="none" xmlns="http://www.w3.org/2000/svg">
<path d="M15.1834 2.71436V9.89198C15.1834 10.4723 14.9617 11.0306 14.5636 11.4528C14.1655 11.875 13.6211 12.1291 13.0419 12.1632L12.9084 12.167H2.29172C1.71144 12.167 1.15307 11.9453 0.730876 11.5472C0.308677 11.1491 0.0545588 10.6047 0.0205154 10.0254L0.0167236 9.89198V2.71436L7.17918 7.48958L7.26715 7.53963C7.37082 7.59028 7.48468 7.61661 7.60006 7.61661C7.71544 7.61661 7.8293 7.59028 7.93297 7.53963L8.02093 7.48958L15.1834 2.71436Z" fill="#2C041D"/>
<path d="M12.9083 0.0335693C13.7273 0.0335693 14.4455 0.465819 14.8459 1.11571L7.6 5.94629L0.354126 1.11571C0.54431 0.806935 0.805555 0.548099 1.11608 0.360782C1.4266 0.173466 1.77741 0.0630968 2.13924 0.0388776L2.29167 0.0335693H12.9083Z" fill="#2C041D"/>
</svg>
