<svg width="15" height="15" viewBox="0 0 15 15" fill="none" xmlns="http://www.w3.org/2000/svg">
<path d="M3.52019 6.38239C4.61219 8.52848 6.37152 10.2802 8.51761 11.3798L10.1859 9.71148C10.3907 9.50673 10.694 9.43848 10.9594 9.52948C11.8088 9.81006 12.7264 9.96173 13.6667 9.96173C14.0838 9.96173 14.425 10.303 14.425 10.7201V13.3666C14.425 13.7837 14.0838 14.125 13.6667 14.125C6.54594 14.125 0.775024 8.35406 0.775024 1.23331C0.775024 0.816226 1.11627 0.474976 1.53336 0.474976H4.18752C4.60461 0.474976 4.94586 0.816226 4.94586 1.23331C4.94586 2.18123 5.09752 3.09123 5.37811 3.94056C5.46152 4.20598 5.40086 4.50173 5.18852 4.71406L3.52019 6.38239Z" fill="#2C041D"/>
</svg>
